HIERARCHY
ROOT hip
{
  OFFSET 0 0 0
  CHANNELS 6 Xposition Yposition Zposition Zrotation Yrotation Xrotation
  JOINT abdomen
  {
    OFFSET 0 20.6881 -0.73152
    CHANNELS 3 Zrotation Xrotation Yrotation
    JOINT chest
    {
      OFFSET 0 11.7043 -0.48768
      CHANNELS 3 Zrotation Xrotation Yrotation
      JOINT neck
      {
        OFFSET 0 22.1894 -2.19456
        CHANNELS 3 Zrotation Xrotation Yrotation
        JOINT head
        {
          OFFSET -0.24384 7.07133 1.2192
          CHANNELS 3 Zrotation Xrotation Yrotation
          JOINT leftEye
          {
            OFFSET 4.14528 8.04674 8.04672
            CHANNELS 3 Zrotation Xrotation Yrotation
            End Site
            {
              OFFSET 1 0 0
            }
          }
          JOINT rightEye
          {
            OFFSET -3.6576 8.04674 8.04672
            CHANNELS 3 Zrotation Xrotation Yrotation
            End Site
            {
              OFFSET 1 0 0
            }
          }
        }
      }
      JOINT rCollar
      {
        OFFSET -2.68224 19.2634 -4.8768
        CHANNELS 3 Zrotation Xrotation Yrotation
        JOINT rShldr
        {
          OFFSET -8.77824 -1.95073 1.46304
          CHANNELS 3 Zrotation Xrotation Yrotation
          JOINT rForeArm
          {
            OFFSET -28.1742 -1.7115 0.48768
            CHANNELS 3 Zrotation Xrotation Yrotation
            JOINT rHand
            {
              OFFSET -22.5879 0.773209 7.07136
              CHANNELS 3 Zrotation Xrotation Yrotation
              JOINT rThumb1
              {
                OFFSET -1.2192 -0.487915 3.41376
                CHANNELS 3 Zrotation Xrotation Yrotation
                JOINT rThumb2
                {
                  OFFSET -3.37035 -0.52449 3.41376
                  CHANNELS 3 Zrotation Xrotation Yrotation
                  End Site
                  {
                    OFFSET -1.78271 -1.18214 1.43049
                  }
                }
              }
              JOINT rIndex1
              {
                OFFSET -7.75947 0.938293 5.60832
                CHANNELS 3 Zrotation Xrotation Yrotation
                JOINT rIndex2
                {
                  OFFSET -2.54057 -0.884171 1.56538
                  CHANNELS 3 Zrotation Xrotation Yrotation
                  End Site
                  {
                    OFFSET -1.62519 -0.234802 1.16502
                  }
                }
              }
              JOINT rMid1
              {
                OFFSET -8.24714 1.18213 3.41376
                CHANNELS 3 Zrotation Xrotation Yrotation
                JOINT rMid2
                {
                  OFFSET -3.10165 -0.590103 1.0647
                  CHANNELS 3 Zrotation Xrotation Yrotation
                  End Site
                  {
                    OFFSET -2.48547 -0.328903 0.83742
                  }
                }
              }
              JOINT rRing1
              {
                OFFSET -8.82822 0.546677 1.51678
                CHANNELS 3 Zrotation Xrotation Yrotation
                JOINT rRing2
                {
                  OFFSET -2.60934 -0.819778 -0.0198488
                  CHANNELS 3 Zrotation Xrotation Yrotation
                  End Site
                  {
                    OFFSET -2.33842 -0.294052 0.168128
                  }
                }
              }
              JOINT rPinky1
              {
                OFFSET -8.27202 -0.0477905 -0.4584
                CHANNELS 3 Zrotation Xrotation Yrotation
                JOINT rPinky2
                {
                  OFFSET -1.82734 -0.647385 -0.700984
                  CHANNELS 3 Zrotation Xrotation Yrotation
                  End Site
                  {
                    OFFSET -1.69225 -0.51767 -0.607171
                  }
                }
              }
            }
          }
        }
      }
      JOINT lCollar
      {
        OFFSET 2.68224 19.2634 -4.8768
        CHANNELS 3 Zrotation Xrotation Yrotation
        JOINT lShldr
        {
          OFFSET 8.77824 -1.95073 1.46304
          CHANNELS 3 Zrotation Xrotation Yrotation
          JOINT lForeArm
          {
            OFFSET 28.1742 -1.7115 0.48768
            CHANNELS 3 Zrotation Xrotation Yrotation
            JOINT lHand
            {
              OFFSET 22.5879 0.773209 7.07136
              CHANNELS 3 Zrotation Xrotation Yrotation
              JOINT lThumb1
              {
                OFFSET 1.2192 -0.487915 3.41376
                CHANNELS 3 Zrotation Xrotation Yrotation
                JOINT lThumb2
                {
                  OFFSET 3.37035 -0.52449 3.41376
                  CHANNELS 3 Zrotation Xrotation Yrotation
                  End Site
                  {
                    OFFSET 1.78271 -1.18214 1.43049
                  }
                }
              }
              JOINT lIndex1
              {
                OFFSET 7.75947 0.938293 5.60832
                CHANNELS 3 Zrotation Xrotation Yrotation
                JOINT lIndex2
                {
                  OFFSET 2.54057 -0.884171 1.56538
                  CHANNELS 3 Zrotation Xrotation Yrotation
                  End Site
                  {
                    OFFSET 1.62519 -0.234802 1.16502
                  }
                }
              }
              JOINT lMid1
              {
                OFFSET 8.24714 1.18213 3.41376
                CHANNELS 3 Zrotation Xrotation Yrotation
                JOINT lMid2
                {
                  OFFSET 3.10165 -0.590103 1.0647
                  CHANNELS 3 Zrotation Xrotation Yrotation
                  End Site
                  {
                    OFFSET 2.48547 -0.328903 0.83742
                  }
                }
              }
              JOINT lRing1
              {
                OFFSET 8.82822 0.546677 1.51678
                CHANNELS 3 Zrotation Xrotation Yrotation
                JOINT lRing2
                {
                  OFFSET 2.60934 -0.819778 -0.0198488
                  CHANNELS 3 Zrotation Xrotation Yrotation
                  End Site
                  {
                    OFFSET 2.33842 -0.294052 0.168128
                  }
                }
              }
              JOINT lPinky1
              {
                OFFSET 8.27202 -0.0477905 -0.4584
                CHANNELS 3 Zrotation Xrotation Yrotation
                JOINT lPinky2
                {
                  OFFSET 1.82734 -0.647385 -0.700984
                  CHANNELS 3 Zrotation Xrotation Yrotation
                  End Site
                  {
                    OFFSET 1.69225 -0.51767 -0.607171
                  }
                }
              }
            }
          }
        }
      }
    }
  }
  JOINT rButtock
  {
    OFFSET -8.77824 4.35084 1.2192
    CHANNELS 3 Zrotation Xrotation Yrotation
    JOINT rThigh
    {
      OFFSET 0 -1.70687 -2.19456
      CHANNELS 3 Zrotation Xrotation Yrotation
      JOINT rShin
      {
        OFFSET 0 -36.8199 0.73152
        CHANNELS 3 Zrotation Xrotation Yrotation
        JOINT rFoot
        {
          OFFSET 0.73152 -45.1104 -5.12064
          CHANNELS 3 Zrotation Xrotation Yrotation
          End Site
          {
            OFFSET -1.1221 -3.69964 12.103
          }
        }
      }
    }
  }
  JOINT lButtock
  {
    OFFSET 8.77824 4.35084 1.2192
    CHANNELS 3 Zrotation Xrotation Yrotation
    JOINT lThigh
    {
      OFFSET 0 -1.70687 -2.19456
      CHANNELS 3 Zrotation Xrotation Yrotation
      JOINT lShin
      {
        OFFSET 0 -36.8199 0.73152
        CHANNELS 3 Zrotation Xrotation Yrotation
        JOINT lFoot
        {
          OFFSET -0.73152 -45.1104 -5.12064
          CHANNELS 3 Zrotation Xrotation Yrotation
          End Site
          {
            OFFSET 1.1221 -3.69964 12.103
          }
        }
      }
    }
  }
}
MOTION
Frames:	7
Frame Time:	0.00833333
47.7991 88.4821 37.2654 -0.0 0.0 -0.0 -0.0 -4.771896 -180.0 0.0 -4.771896 -180.0 11.359575 6.157081 79.425429 -8.145262 10.039281 -79.321748 0.0 -0.0 -0.0 0.0 -0.0 -0.0 3.268835 -26.755826 -5.241683 88.541499 -87.442233 86.923273 21.950537 -83.316184 -16.14123 170.069788 -18.162883 143.642389 -89.136032 38.427358 50.299234 43.110929 -37.570579 23.185774 10.211155 -18.05077 -4.56389 85.080079 -57.271232 41.704699 -0.571049 1.648356 0.322148 -11.95999 28.985027 7.01731 -0.021306 -1.72602 -0.542654 -167.032085 -34.585437 175.460348 0.098846 0.258289 0.091255 -161.916309 55.157098 -150.018075 -3.542039 -62.05305 13.039183 136.315441 65.501508 -134.602264 -166.325655 1.693514 -154.033279 167.364155 43.734913 -140.144985 171.653675 -9.336187 -89.949478 137.976941 9.898875 -69.373308 83.732676 42.330462 -69.989987 148.961021 23.73686 -117.75176 -68.983989 -80.15399 -40.578188 9.172134 25.382538 -9.537213 -0.000171 0.022623 -0.007107 166.294828 -53.807729 -178.759321 104.234857 -44.888946 102.393662 152.145595 38.13161 149.859415 -180.0 75.749642 -0.0 -180.0 73.473292 -180.0 -7.478983 -7.83234 -90.409647 -147.883249 -21.835695 110.42101 -180.0 75.749642 -0.0 -180.0 73.473292 -180.0 7.080248 -6.369655 103.605104 145.286445 27.443904 -79.040258
48.8155 88.2099 37.3205 -0.0 -0.0 0.0 0.0 0.0 0.0 0.0 -0.0 -0.0 -7.906765 12.08614 -91.106352 11.93363 8.136982 91.092829 0.0 -0.0 -0.0 0.0 -0.0 -0.0 3.268835 -26.755826 -5.241683 -4.672875 15.468242 6.249097 -97.350372 73.598069 80.880598 65.476095 -69.272301 51.123316 -5.433768 5.264911 1.077842 -131.793341 -31.573151 113.813767 -138.493513 4.896353 114.8648 -65.045041 62.196355 54.554586 -17.370464 35.632012 12.954628 -152.980478 29.727192 137.661488 -145.121954 1.975391 -179.748922 -145.366379 1.408975 -179.027819 -25.537984 -38.087442 -24.598474 1.325116 -1.045 1.168572 -3.268835 -26.755826 5.241683 89.567635 80.492355 -89.209548 4.641839 -56.546803 7.933931 -1.9822 -6.263983 -0.323301 -14.702693 -14.614123 0.383234 -1.46371 -10.380655 12.039104 -159.641557 -69.973343 -102.396332 60.677474 47.969874 -55.063111 167.298223 -27.767532 -145.260174 -5.946384 0.483865 -1.523068 145.119721 0.310087 179.225753 49.060629 87.699854 -72.61446 157.329919 57.246404 150.511839 -4.542299 3.550377 2.415231 -0.0 0.0 0.0 -0.0 -0.0 -0.0 2.512346 0.127625 22.075435 -170.760998 -33.401906 36.22695 -0.0 0.0 0.0 -0.0 -0.0 -0.0 -2.512346 0.127625 -22.075435 170.760998 -33.401906 -36.22695
49.9415 87.8049 37.558 -0.0 0.0 -0.0 -0.0 -4.771896 -180.0 0.0 -4.771896 -180.0 11.359575 6.157081 79.425429 -8.145262 10.039281 -79.321748 0.0 -0.0 -0.0 0.0 -0.0 -0.0 3.268835 -26.755826 -5.241683 88.541499 -87.442233 86.923273 21.950537 -83.316184 -16.14123 170.069788 -18.162883 143.642389 -5.433768 5.264911 1.077842 73.061472 -76.616117 5.077925 -132.81837 12.807409 111.109258 79.41714 -73.798583 22.550779 3.77609 -11.559351 -1.812841 -14.952435 33.072013 9.790616 -0.000142 -0.018533 -0.005823 1.092907 -21.750281 -2.551727 -16.662593 -29.659212 -15.919774 -148.160745 10.050088 -144.530719 -3.542039 -62.05305 13.039183 136.315441 65.501508 -134.602264 -166.325655 1.693514 -154.033279 167.364155 43.734913 -140.144985 89.136032 38.427358 -50.299234 -169.56192 -45.833551 -73.750357 10.571294 15.013433 -6.865128 178.035245 -20.627475 -112.617978 -173.123457 -66.297779 -137.614274 7.336764 25.231599 -9.175764 69.84025 -72.122743 86.714575 -10.710072 18.725051 -8.930734 86.000836 -50.498128 84.371009 41.003096 -52.124046 42.136012 -180.0 75.749642 -0.0 -180.0 73.473292 -180.0 -7.478983 -7.83234 -90.409647 -147.883249 -21.835695 110.42101 -180.0 75.749642 -0.0 -180.0 73.473292 -180.0 7.080248 -6.369655 103.605104 145.286445 27.443904 -79.040258
50.9985 87.3704 37.508 -0.0 0.0 -0.0 0.0 0.0 0.0 -0.0 -0.0 0.0 1.681211 -0.191291 9.638157 -1.625502 0.469952 -9.628684 0.0 0.0 0.0 0.0 0.0 0.0 3.268835 -26.755826 -5.241683 -145.683225 73.013656 145.008802 164.437059 0.031751 163.149052 -131.619719 70.242132 110.164882 -5.433768 5.264911 1.077842 -137.642458 -41.072531 115.833966 -140.164771 2.326489 115.87806 15.052133 8.426299 -12.749214 -160.937898 -7.488186 143.367502 -0.317839 17.812795 3.804204 -145.118941 0.185402 -179.186584 -140.385901 -33.377519 -173.425559 44.735211 86.377934 -5.369007 -164.695295 54.359339 -144.249707 -3.268835 -26.755826 5.241683 156.383009 66.188762 -155.530368 20.671973 -82.845084 25.0044 -0.456165 -1.454573 -0.055593 178.927535 -16.453687 -89.421826 -24.36415 -67.710151 -18.337258 151.353117 -17.158427 -121.133109 147.415553 -8.556914 -120.686727 36.036059 51.723116 -29.832321 89.976806 66.680668 -80.420352 145.118942 0.185466 179.186604 34.151743 -76.360282 65.868291 135.820882 -11.891747 133.184746 -17.699088 41.292652 -7.52336 -180.0 75.749642 -0.0 -180.0 73.473292 -180.0 -7.487405 -7.889608 -89.906085 -153.444051 10.001066 100.255601 -180.0 75.749642 -0.0 -180.0 73.473292 -180.0 7.141193 -6.527402 102.138307 85.132863 68.41083 -12.67384
52.37729999999999 87.1454 37.6165 -0.0 -0.0 0.0 0.0 0.0 0.0 0.0 -0.0 -0.0 -7.906765 12.08614 -91.106352 11.93363 8.136982 91.092829 0.0 -0.0 -0.0 0.0 -0.0 -0.0 3.268835 -26.755826 -5.241683 -4.672875 15.468242 6.249097 -97.350372 73.598069 80.880598 65.476095 -69.272301 51.123316 71.831195 -48.263725 25.791675 -160.634706 -62.70357 143.074435 -155.193415 -24.299992 122.142835 99.403648 -69.954166 35.77656 -36.036059 51.723116 29.832321 -5.013468 21.049033 1.4859 -145.121957 1.974539 -179.748654 -142.114037 -24.467597 -175.033182 -0.344362 -0.890269 -0.318422 -7.346853 -17.271947 -6.522631 -3.268835 -26.755826 5.241683 89.567635 80.492355 -89.209548 4.641839 -56.546803 7.933931 -1.9822 -6.263983 -0.323301 19.688051 17.543742 -5.975988 117.673859 -15.598516 -101.118798 166.865551 -44.037448 -122.052336 57.367368 53.70941 -53.243304 160.09819 -4.901163 -142.968881 -5.728826 2.14614 -0.483415 -0.000273 0.036338 -0.011416 5.232127 38.168779 -6.82012 86.171571 -50.468117 84.540001 -4.356263 1.835974 -1.970906 -0.0 0.0 0.0 -0.0 -0.0 -0.0 2.512346 0.127625 22.075435 -170.760998 -33.401906 36.22695 -0.0 0.0 0.0 -0.0 -0.0 -0.0 -2.512346 0.127625 -22.075435 170.760998 -33.401906 -36.22695
53.7563 87.412 37.9312 -0.0 0.0 -0.0 -0.0 -4.771896 -180.0 0.0 -4.771896 -180.0 11.359575 6.157081 79.425429 -8.145262 10.039281 -79.321748 0.0 -0.0 -0.0 0.0 -0.0 -0.0 3.268835 -26.755826 -5.241683 88.541499 -87.442233 86.923273 21.950537 -83.316184 -16.14123 170.069788 -18.162883 143.642389 -171.706035 -9.388422 89.948992 -91.010727 10.729174 35.009626 -132.81837 12.807409 111.109258 79.41714 -73.798583 22.550779 3.77609 -11.559351 -1.812841 -14.952435 33.072013 9.790616 -0.000142 -0.018533 -0.005823 1.092907 -21.750281 -2.551727 -16.662593 -29.659212 -15.919774 -148.160745 10.050088 -144.530719 -3.542039 -62.05305 13.039183 136.315441 65.501508 -134.602264 -166.325655 1.693514 -154.033279 167.364155 43.734913 -140.144985 103.199394 36.330979 -60.111426 156.94011 -28.240749 -77.989515 46.208543 39.652969 -36.318179 -6.86444 -11.5619 11.638872 -23.903801 -61.333833 -1.399383 164.624383 -3.992988 -140.333758 72.350995 72.974965 -90.218005 21.021997 -58.921627 38.827483 -8.368306 26.426704 -7.36241 27.471808 -40.286774 25.919256 -180.0 75.749642 -0.0 -180.0 73.473292 -180.0 -7.478983 -7.83234 -90.409647 -147.883249 -21.835695 110.42101 -180.0 75.749642 -0.0 -180.0 73.473292 -180.0 7.080248 -6.369655 103.605104 145.286445 27.443904 -79.040258
55.1215 87.7409 38.2323 -0.0 -0.0 0.0 0.0 0.0 0.0 0.0 -0.0 -0.0 5.378815 19.190315 171.562156 2.722037 19.722949 -172.945368 -0.0 -0.0 0.0 -0.0 -0.0 0.0 -155.504155 -3.514523 161.838528 32.504698 -40.551456 18.735735 -72.024249 -76.596788 -85.554754 19.671449 -45.620626 10.039229 -78.493201 38.702306 42.741368 28.444966 -28.928783 19.628525 -140.763228 1.380556 116.229033 3.150804 31.302566 -5.38863 23.903801 -61.333833 1.399383 -160.635743 6.015267 138.908241 0.004873 1.771387 0.556475 -166.797864 -39.237142 176.884291 -23.391137 -36.34947 -22.493225 -128.829878 -32.082567 -126.828841 142.973735 39.431617 -147.390037 -21.14447 1.27899 -7.278164 -178.426639 -21.346637 -176.933598 8.332799 25.44627 -0.996566 78.030619 38.689342 -42.41267 -25.116419 -27.039951 -19.741433 -24.075919 -42.306446 5.558499 99.331863 39.070079 -74.339156 36.036059 51.723116 -29.832321 -5.389099 -12.570393 3.870843 145.118942 0.185529 179.186624 139.557159 79.288148 -164.283871 157.329919 57.246404 150.511839 9.921952 -23.653671 14.073477 -0.0 0.0 0.0 -0.0 -0.0 -0.0 2.512346 0.127625 22.075435 -170.760998 -33.401906 36.22695 -0.0 0.0 0.0 -0.0 -0.0 -0.0 -2.512346 0.127625 -22.075435 170.760998 -33.401906 -36.22695
